<svg xmlns="http://www.w3.org/2000/svg" width="512" height="512" viewBox="0 0 512 512"><path d="M346.5 85.563c-20.498 0-40.99 7.772-56.563 23.343l-2.25 2.281-54.312 54.313L256 188.125l56.563-56.594c18.998-18.999 48.906-18.999 67.906 0 18.999 19 18.999 48.906 0 67.906l-67.906 67.875c-19 19-48.875 19-67.875 0-4.65-4.648-8.095-9.906-10.438-15.53l-29.531 12.28a80.213 80.213 0 0 0 17.344 25.875c31.143 31.143 81.981 31.144 113.125 0l67.906-67.875c31.142-31.143 31.143-82.013 0-113.156-15.572-15.571-36.096-23.344-56.594-23.344zM233.375 198.719c-20.498 0-40.99 7.772-56.563 23.344l-67.906 67.875c-31.142 31.143-31.143 82.013 0 113.156 31.144 31.142 82.013 31.143 113.156 0l56.563-56.594L256 323.875l-56.563 56.594c-18.998 18.999-48.906 18.999-67.906 0-18.999-19-18.999-48.906 0-67.906L188.125 256l11.313-11.313c18.998-18.998 48.874-18.999 67.875 0 4.648 4.65 8.094 9.907 10.437 15.532l29.531-12.281a80.213 80.213 0 0 0-17.344-25.875c-15.571-15.572-36.064-23.344-56.562-23.344z" fill="rgba(0,0,0,.5)"/></svg>