<svg xmlns="http://www.w3.org/2000/svg" width="100" height="60" viewBox="0 0 100 60"><path d="M21 1c.7 0 1 .3 1 1v56.5c0 .3-.1.4 0 .4 0 0-.2.1-.8.1h-9.7C5.6 59 1 54.5 1 48.8V36.9c0-3.6 1.1-7.6 9-11.6 0 0 .2-.1.5-.1.2 0 .5.1.8.6.4.8-.2 1.3-.3 1.4-5.5 2.7-8 5.8-8 9.7v11.9c0 4.8 3.6 8.2 8.5 8.2H20V2c0-.7.3-1 1-1m0-1c-1.2 0-2 .8-2 2v54h-7.5C7.2 56 4 53 4 48.8V36.9c0-3.5 2.3-6.3 7.4-8.9.6-.3 1.4-1.3.7-2.7-.5-.9-1.1-1.1-1.6-1.1-.6 0-.9.2-1 .2C4.5 27 0 30.3 0 36.9v11.9C0 55.1 5.1 60 11.5 60h9.7c1.2 0 1.8-.3 1.8-1.5V2c0-1.2-.8-2-2-2zm16.6 18.1c.5 0 1 0 1.6.1 2.9.4 5.5 2.2 6.9 4.8.2.3.2.6.1.8-.1.2-.2.4-.4.6-.2.1-.3.1-.5.1-.4 0-.7-.2-.9-.6-1.3-2.2-3.1-3.4-5.5-3.7-.4-.1-.8-.1-1.2-.1-2 0-3.7.7-5.2 2-1.8 1.6-2.6 3.6-2.5 6.3.2 2.5 1.3 4.4 3.3 5.8l9 6.3c2.5 1.8 4 4.5 4.3 7.7.3 3.1-.9 5.9-3.3 8.1-1.9 1.7-4.2 2.6-6.8 2.6-.5 0-1 0-1.6-.1-3.4-.7-5.9-2.4-7.3-5-.3-.5-.1-1.1.4-1.4.2-.1.3-.1.5-.1.4 0 .7.2.9.5 1.3 2.3 3.3 3.6 5.8 4 .5.1 1 .1 1.5.1 2 0 3.7-.7 5.3-2.2 1.9-1.8 2.8-4 2.6-6.5-.1-2.5-1.3-4.6-3.4-6.1l-9-6.4c-2.4-1.7-3.9-4.3-4.1-7.3-.2-3 .9-5.7 3.2-7.9 1.6-1.5 3.9-2.4 6.3-2.4m0-1c-2.7 0-5.2 1-7.1 2.8-2.5 2.4-3.7 5.3-3.5 8.6.3 3.3 1.9 6.2 4.6 8l9 6.4c1.9 1.3 2.9 3.1 3 5.3.2 2.2-.6 4.1-2.3 5.7-1.3 1.5-2.8 2.1-4.5 2.1-.4 0-.9 0-1.3-.1-2.2-.3-3.9-1.4-5.1-3.5-.4-.7-1-1-1.8-1-.3 0-.7.1-1 .3-1 .5-1.3 1.8-.8 2.8 1.5 2.8 4.3 4.7 8 5.5h1.7c2.8 0 5.4-1 7.5-2.9 2.6-2.4 3.9-5.6 3.6-8.9-.3-3.6-1.9-6.5-4.7-8.4l-9-6.3c-1.8-1.2-2.7-2.9-2.9-5-.1-2.3.6-4.1 2.1-5.4 1.3-1.2 2.9-1.8 4.6-1.8.3 0 .7 0 1.1.1 2 .3 3.6 1.4 4.8 3.3.4.7 1 1 1.8 1 .3 0 .7-.1 1-.3.5-.3.8-.7.9-1.2.1-.5 0-1-.2-1.5-1.6-2.9-4.4-4.8-7.7-5.3-.6-.2-1.2-.3-1.8-.3zM53 1c.7 0 1 .3 1 1v38.4l1.7-1.9 18-20c.2-.2.6-.3.9-.3.3 0 .5.1.7.3.2.2.3.5.3.7 0 .2 0 .4-.2.6L63.1 33.6l-.5.5.3.6 12.5 22.8c.1.3.2.5.1.8-.1.3-.2.5-.5.6 0 .1-.1.1-.3.1-.3 0-.7-.2-.9-.5l-12-21.6-.7-1.2-.9 1-5.9 6.5-.3.2V58c0 .7-.3 1-1 1s-1-.3-1-1V2c0-.7.3-1 1-1m0-1c-1.2 0-2 .8-2 2v56c0 1.2.8 2 2 2s2-.8 2-2V43.8l5.9-6.5 12 21.7c.4.6 1.1 1 1.8 1 .3 0 .6-.1.9-.2.5-.3.8-.7 1-1.2.1-.5.1-1.1-.2-1.5L63.8 34.2l12.3-13.7c.4-.4.6-.9.5-1.4 0-.5-.3-1-.7-1.4-.4-.3-.9-.5-1.4-.5-.6 0-1.2.2-1.6.6l-18 20V2c.1-1.2-.7-2-1.9-2zm45 1c.7 0 1 .3 1 1v56.3c0 .7-.1.7-.7.7h-9.7C82.7 59 78 54.3 78 48.5V36.7c0-5.8 3.6-8.8 9-11.6 0 0 .2-.1.5-.1.2 0 .5.1.8.6.4.9-.3 1.3-.3 1.3-5.4 2.8-7.9 5.9-7.9 9.8v11.9c0 4.7 3.8 8.5 8.5 8.5H97V2c0-.7.3-1 1-1m0-1c-1.2 0-2 .8-2 2v54h-7.5c-4.3 0-7.5-3.2-7.5-7.5V36.7c0-3.5 2.3-6.3 7.4-8.9.6-.3 1.5-1.3.8-2.7-.5-.9-1.1-1.1-1.7-1.1-.6 0-1 .2-1 .2-5 2.6-9.6 5.8-9.6 12.5v11.9C77 54.9 82.2 60 88.5 60h9.7c1.2 0 1.7-.5 1.7-1.7V2c.1-1.2-.7-2-1.9-2z" fill="rgba(0,0,0,.15)"/></svg>