<svg xmlns="http://www.w3.org/2000/svg" width="512" height="512" viewBox="0 0 512 512"><path d="M492.255 109.456c-17.384 7.71-36.069 12.92-55.676 15.264 20.011-11.997 35.384-30.994 42.623-53.632a194.06 194.06 0 0 1-61.561 23.524C399.96 75.77 374.765 64 346.882 64c-53.535 0-96.942 43.402-96.942 96.938 0 7.598.857 14.997 2.51 22.092-80.566-4.042-151.999-42.637-199.81-101.287-8.345 14.317-13.126 30.97-13.126 48.737 0 33.633 17.114 63.305 43.127 80.688a96.553 96.553 0 0 1-43.908-12.124c-.01.404-.01.808-.01 1.219 0 46.968 33.417 86.147 77.763 95.055a97.082 97.082 0 0 1-43.779 1.661c12.337 38.512 48.137 66.541 90.558 67.32-33.177 26.003-74.976 41.5-120.395 41.5a197.2 197.2 0 0 1-23.125-1.355C62.645 431.95 113.602 448 168.346 448c178.31 0 275.82-147.716 275.82-275.821 0-4.203-.097-8.382-.284-12.54 18.943-13.67 35.377-30.742 48.373-50.183" fill="rgba(0,0,0,.3)"/></svg>