<svg xmlns="http://www.w3.org/2000/svg" height="512" width="512" viewBox="0 0 512 512"><path d="M135.678 64.008c-3.152.066-4.67.55-4.67.55-13.138 33.318-4.86 57.92-2.348 64.013-15.472 16.94-24.92 38.518-24.92 64.92 0 92.68 56.476 113.428 110.2 119.54-6.918 6.04-13.182 16.71-15.356 32.338-13.803 6.18-48.817 16.873-70.39-20.1 0 0-12.785-23.224-37.073-24.93 0 0-23.598-.31-1.653 14.7 0 0 15.85 7.44 26.854 35.392 0 0 14.2 43.17 81.49 28.54.104 20.21.33 63.267.33 69.03h119.93c0-7.967.278-58.012.278-90.375 0-22.566-7.73-37.285-16.406-44.79 53.86-5.99 110.445-26.44 110.445-119.345 0-26.403-9.382-47.98-24.89-64.92 2.51-6.092 10.79-30.695-2.376-64.012 0 0-20.285-6.493-66.45 24.8-19.33-5.358-40.036-8.046-60.592-8.142-20.555.096-41.252 2.784-60.545 8.143-31.775-21.515-51.302-25.17-60.404-25.353-.518-.01-1.002-.01-1.452 0zm-31.81 243.424c.156.005.315.02.478.043v.004c.432.063.88.2 1.318.405 1.755.79 2.753 2.44 2.148 3.645-.533 1.206-2.42 1.567-4.14.742-1.76-.794-2.743-2.433-2.175-3.64.293-.693 1.02-1.103 1.91-1.185v-.002c.15-.014.302-.018.46-.014zm9.61 8.316c1.107-.023 2.41.573 3.447 1.68 1.586 1.706 1.893 3.94.688 5.027-1.154 1.07-3.41.575-4.936-1.115-1.587-1.686-1.878-3.946-.71-5.027.298-.267.655-.44 1.052-.516.148-.03.3-.045.458-.05zm9.566 12.37c1.376-.073 3.002.848 4.14 2.446 1.48 2.187 1.482 4.765-.032 5.818-1.48 1.034-3.912.07-5.41-2.08-1.48-2.154-1.483-4.735.035-5.768.374-.258.81-.39 1.268-.416zm11.6 13.745c1.343-.063 2.94.566 4.242 1.803 2.1 1.946 2.736 4.73 1.326 6.176-1.325 1.46-4.146 1.075-6.213-.924-2.116-1.946-2.707-4.718-1.382-6.18.505-.55 1.22-.837 2.025-.875zm17.607 10.516c.654.007 1.34.112 2.03.327 2.73.825 4.52 3.025 3.953 4.95-.588 1.896-3.303 2.753-6.043 1.948-2.735-.83-4.524-3.042-3.97-4.957.426-1.43 2.07-2.29 4.03-2.27zm39.474.83c.345-.012.682 0 1.006.034 1.943.213 3.45 1.246 3.725 2.73.344 1.943-1.656 3.936-4.512 4.47-2.808.515-5.405-.684-5.762-2.61-.348-1.995 1.68-3.997 4.487-4.514.358-.062.712-.097 1.057-.11zm-18.926 2.364h.002c2.875-.055 5.234 1.554 5.234 3.533.068 1.995-2.255 3.647-5.13 3.684-2.892.065-5.237-1.55-5.27-3.513 0-2.014 2.276-3.65 5.163-3.703z" fill="rgba(0,0,0,.3)"/></svg>