<svg xmlns="http://www.w3.org/2000/svg" width="512" height="512" viewBox="0 0 512 512"><path d="M512 250v-2c-42.158-8.427-85.827-9.087-112-8 4.3-15.487 6-32.128 6-52 0-28.5-10.611-52.65-28-70 3.038-9.805 7.15-30.123-4-58 0 0-19.504-7.772-64 22-17.43-4.355-35.422-6-54-6-20.44 0-42.736 2.717-62 8-45.917-31.315-66-24-66-24-13.23 33.077-4.485 55.918-2 62-15.55 16.78-26 39.74-26 66 0 19.824 2.486 36.543 8 52-26.396-.96-67.346-.127-108 8v2c40.9-8.177 83.765-8.993 110-8 1.215 3.2 2.482 7 4 10-25.944.836-71.545 4.027-114 16l2 2c42.79-12.06 86.308-15.214 112-16 15.5 28.886 45.63 46.14 100 52-7.717 5.184-14.81 15.09-18 30-10.516 5.028-44.028 16.342-64-18 0 0-10.6-20.4-32-22 0 0-21.326.75-2 14 0 0 14.416 5.41 24 30 .298 0 11.67 43.456 72 30v42c-.298 0 .052 14.894-14 20 0 0-8.945 6.812 0 10 .032 0 38 3.917 38-28v-48c.34 0-1.206-17.488 8-24v76c-.37 0-.42 18.977-10 26 0 0-6.05 11.188 8 8 0 0 26.722-4.72 28-36v-78h8v78c1.276 31.28 28 36 28 36 14.047 3.188 8-8 8-8-9.96-7.023-10-26-10-26v-76c9.54 7.163 8 24 8 24v48c.044 31.918 38 28 38 28 8.937-3.188 0-10 0-10-14.36-5.106-14-20-14-20v-62c.31-24.147-10.054-37.25-20-44 57.983-5.748 85.18-22.92 98-52 25.398.698 70.28 3.67 114 16l2-2c-43.47-12.257-90.345-15.253-116-16 1.215-2.938 3.058-6.857 4-10 41.325.51 78.074 1.154 112 8z" fill="rgba(0,0,0,.3)"/></svg>