<svg xmlns="http://www.w3.org/2000/svg" width="512" height="512" viewBox="0 0 512 512"><path d="M135.678 64.008c-3.152.066-4.67.551-4.67.551-13.138 33.317-4.86 57.92-2.348 64.012-15.472 16.939-24.92 38.517-24.92 64.92 0 92.68 56.476 113.427 110.199 119.539-6.917 6.039-13.181 16.709-15.355 32.338-13.803 6.18-48.817 16.873-70.389-20.1 0 0-12.786-23.224-37.074-24.93 0 0-23.599-.311-1.654 14.701 0 0 15.851 7.438 26.854 35.391 0 0 14.198 43.17 81.488 28.539.105 20.21.33 63.268.33 69.031h119.93c0-7.967.279-58.012.279-90.375 0-22.566-7.73-37.285-16.406-44.791 53.86-5.988 110.445-26.44 110.445-119.344 0-26.403-9.382-47.981-24.891-64.92 2.512-6.092 10.791-30.695-2.375-64.012 0 0-20.286-6.493-66.451 24.801-19.33-5.359-40.036-8.047-60.592-8.143-20.555.096-41.252 2.784-60.545 8.143-31.775-21.514-51.302-25.168-60.404-25.352a36.896 36.896 0 0 0-1.451 0zm-31.811 243.424c.157.005.316.019.479.043v.004c.432.064.88.2 1.318.406 1.755.789 2.753 2.439 2.148 3.645-.533 1.206-2.419 1.567-4.141.742-1.759-.794-2.742-2.433-2.174-3.639.293-.694 1.019-1.104 1.91-1.186v-.002c.149-.014.302-.018.459-.014zm9.611 8.316c1.107-.023 2.409.573 3.447 1.68 1.586 1.706 1.893 3.941.688 5.027-1.154 1.07-3.41.575-4.936-1.115-1.587-1.686-1.878-3.946-.709-5.027a2.17 2.17 0 0 1 1.051-.516c.149-.029.301-.045.459-.049zm9.566 12.371c1.376-.074 3.002.847 4.141 2.445 1.478 2.187 1.481 4.765-.033 5.818-1.481 1.034-3.912.07-5.41-2.08-1.481-2.154-1.483-4.735.035-5.768a2.441 2.441 0 0 1 1.268-.416zm11.6 13.744c1.343-.063 2.941.566 4.242 1.803 2.099 1.946 2.736 4.73 1.326 6.176-1.325 1.461-4.146 1.075-6.213-.924-2.115-1.946-2.706-4.718-1.381-6.18.505-.549 1.219-.837 2.025-.875zm17.607 10.516a7.129 7.129 0 0 1 2.029.328c2.731.825 4.521 3.025 3.953 4.951-.588 1.895-3.303 2.752-6.043 1.947-2.735-.83-4.524-3.042-3.971-4.957.427-1.43 2.072-2.291 4.031-2.27zm39.473.832a6.947 6.947 0 0 1 1.006.033c1.943.213 3.451 1.246 3.725 2.73.344 1.943-1.656 3.936-4.512 4.469-2.808.516-5.405-.683-5.762-2.609-.349-1.995 1.678-3.997 4.486-4.514a7.784 7.784 0 0 1 1.057-.109zm-18.926 2.363h.002c2.875-.055 5.234 1.554 5.234 3.533.068 1.995-2.255 3.647-5.131 3.684-2.891.064-5.236-1.551-5.268-3.514 0-2.014 2.275-3.651 5.162-3.703z" fill="rgba(0,0,0,.3)"/></svg>